<svg width="96" height="34" viewBox="0 0 96 34" fill="none" xmlns="http://www.w3.org/2000/svg">
<path d="M40.416 14.744H43.272C42.864 11.24 40.224 8.48 35.88 8.48C30.936 8.48 27.816 12.248 27.816 17.408C27.816 22.592 30.936 26.36 35.88 26.36C40.248 26.36 42.888 23.6 43.272 19.736H40.416C40.224 21.824 39 23.912 35.808 23.912C32.112 23.912 30.648 20.816 30.648 17.408C30.648 14.024 32.112 10.928 35.808 10.928C38.976 10.928 40.104 13.016 40.416 14.744ZM50.7122 26.36C46.8722 26.36 44.5442 23.696 44.5442 19.88C44.5442 16.064 46.8722 13.4 50.7122 13.4C54.5522 13.4 56.8802 16.064 56.8802 19.88C56.8802 23.696 54.5522 26.36 50.7122 26.36ZM50.7122 24.296C53.1122 24.296 54.3602 22.4 54.3602 19.88C54.3602 17.336 53.1122 15.464 50.7122 15.464C48.3122 15.464 47.0642 17.336 47.0642 19.88C47.0642 22.4 48.3122 24.296 50.7122 24.296ZM66.0379 16.952C66.0379 18.128 64.8859 18.368 62.9899 18.728C59.9179 19.328 57.9259 20.168 57.9259 22.856C57.9259 24.92 59.4619 26.36 61.9579 26.36C63.8539 26.36 65.2459 25.616 66.0139 24.536H66.0619C66.3019 25.736 66.9259 26.216 68.2699 26.216C68.7499 26.216 69.1579 26.168 69.7339 25.952V24.752C68.7499 24.848 68.5579 24.392 68.5579 23.528V17.696C68.5579 14.432 66.5419 13.4 63.8299 13.4C60.1339 13.4 58.6219 15.248 58.5019 17.6H60.9499C61.0699 16.016 61.8139 15.392 63.8299 15.392C65.5099 15.392 66.0379 16.064 66.0379 16.952ZM62.5099 24.368C61.1419 24.368 60.4699 23.744 60.4699 22.616C60.4699 21.368 61.3819 20.768 63.4699 20.312C64.6459 20.072 65.6299 19.784 66.0379 19.496V21.344C66.0379 23.336 64.5979 24.368 62.5099 24.368ZM79.6558 18.224H82.1758C81.8638 15.44 79.7758 13.4 76.5838 13.4C72.9358 13.4 70.5598 16.04 70.5598 19.88C70.5598 23.72 72.9358 26.36 76.6078 26.36C79.7998 26.36 81.9838 24.272 82.1758 21.44H79.6558C79.5598 22.808 78.7678 24.296 76.6078 24.296C74.1118 24.296 73.0798 22.184 73.0798 19.88C73.0798 17.576 74.1358 15.464 76.6078 15.464C78.7678 15.464 79.5598 16.976 79.6558 18.224ZM90.3926 13.4C88.3286 13.4 87.0566 14.36 86.4086 15.32H86.3606V8.84H83.8406V26H86.3606V18.536C86.3606 16.712 87.6806 15.536 89.5286 15.536C91.2806 15.536 91.9766 16.592 91.9766 18.248V26H94.5206V17.528C94.5206 14.72 92.7206 13.4 90.3926 13.4Z" fill="white"/>
<path d="M21 17C21 11.4772 16.5228 7 11 7C5.47715 7 1 11.4772 1 17C1 22.5228 5.47715 27 11 27C14.0413 27 16.7655 25.6423 18.5996 23.5" stroke="white" stroke-width="2" stroke-linecap="round"/>
<circle cx="11" cy="17" r="5" fill="white"/>
</svg>
